<?xml version="1.0" standalone="no"?><!DOCTYPE svg PUBLIC "-//W3C//DTD SVG 1.1//EN" "http://www.w3.org/Graphics/SVG/1.1/DTD/svg11.dtd"><svg t="1704774463976" class="icon" viewBox="0 0 1024 1024" version="1.1" xmlns="http://www.w3.org/2000/svg" p-id="5280" xmlns:xlink="http://www.w3.org/1999/xlink" width="200" height="200"><path d="M0 658.304h1024v170.666667H0v-170.666667z m0-512h1024v170.666667H0v-170.666667z" fill="#C60B1E" p-id="5281"></path><path d="M0.085333 316.970667h1024v341.333333h-1024z" fill="#FFC400" p-id="5282"></path><path d="M321.365333 541.44c-1.109333-6.997333 0.256-13.866667 0.725334-20.736 0-0.512 0.170667-1.024 0.341333-1.536 1.450667-2.56 3.626667-4.608 5.376-7.04 4.778667-3.413333 9.728-6.4 16.042667-6.144 1.109333 0.085333 2.005333-0.554667 3.114666-0.896a23.893333 23.893333 0 0 1 18.56 19.882667c0.426667 1.92 0.554667 4.138667 2.944 4.949333 10.709333 0.938667 21.461333 0.341333 32.213334 0.341333 11.989333 0 9.984 0.938667 10.069333 9.898667 0.085333 8.746667-0.426667 17.493333 0.085333 26.197333 0.682667 11.946667-1.322667 22.912-8.533333 32.64-0.213333 0.256-0.512 0.341333-0.853333 0.341334-4.864 2.986667-9.6 6.144-15.104 7.722666l0.085333-0.085333c-4.48 2.304-9.258667 1.024-13.866667 1.28-1.834667 0.085333-3.797333 0-5.632 0-6.144 0.426667-10.069333-3.626667-14.421333-6.826667a8.192 8.192 0 0 1-1.536-1.408c-1.493333-2.176-3.328-4.096-4.949333-6.186666-1.834667-2.986667-13.354667 7.552-15.104 4.608-1.322667-6.229333-0.768-16.384-1.28-22.613334-0.128-1.834667-0.64-24.405333-0.896-26.24l-7.381334-8.149333z" fill="#AA1518" p-id="5283"></path><path d="M366.421333 530.858667c-2.005333-0.938667-1.493333-2.773333-1.834666-4.352-1.834667-8.32-4.778667-15.872-14.208-18.346667-1.408-0.298667-1.664-2.901333-3.669334-1.664-3.114667-0.085333-4.949333-1.408-4.949333-4.778667 0-13.653333-0.170667-27.349333 0.085333-41.045333 0-0.768 0.256-1.493333 0.512-2.261333 1.493333-2.688 4.010667-3.114667 6.784-3.2 18.901333-0.512 37.76 0.768 56.661334 0.426666 4.096-0.085333 4.693333 2.261333 4.864 5.717334 0.597333 12.501333 0.256 24.917333 0.512 37.418666a29.226667 29.226667 0 0 1-0.512 17.408c1.194667 4.181333-0.426667 8.277333-0.085334 12.501334 0.170667 1.92-1.152 2.56-2.986666 2.56-13.781333-0.298667-27.477333 0.298667-41.173334-0.426667z" fill="#DADADA" p-id="5284"></path><path d="M384.896 445.141333c-1.578667 1.408 2.261333 4.352 2.688 5.888 1.578667 5.461333-7.125333 2.944-9.813333 4.010667-0.853333 0.341333 16.384-0.682667 15.530666 0.170667 8.789333 0 2.176-0.512 11.008-0.512 7.210667 0 7.210667 0 7.253334 7.466666l0.298666 36.522667c-0.341333 0.341333-0.768 0.341333-1.109333 0-0.256-12.373333-0.682667-24.917333-0.682667-37.418667 0-3.797333-1.322667-4.864-4.864-4.864-18.858667 0.085333-96.128 0.085333-108.373333 0-9.130667-3.626667 1.194667-13.781333-1.152-11.264H384.853333" fill="#9F8504" p-id="5285"></path><path d="M336.896 382.08a9.728 9.728 0 0 1 3.114667-0.256c3.072-0.213333 5.76 1.194667 8.704 1.792 3.541333-1.28 7.125333-2.133333 10.837333-2.56 7.381333-0.853333 12.501333 3.84 18.346667 6.741333 0.725333 0.341333 0.725333 1.706667 2.133333 1.28a30.549333 30.549333 0 0 1 22.826667 2.858667c7.125333 3.669333 11.349333 11.093333 10.752 17.365333 0.085333 8.064-15.36 28.885333-28.714667 35.84H295.594667c-6.741333-0.853333-36.181333-37.461333-27.904-49.706666l69.205333-13.354667z" fill="#9F8504" p-id="5286"></path><path d="M267.050667 396.288c6.698667-14.464 32.64-7.978667 34.645333-7.808 2.773333 0.256 5.290667-3.84 7.168-6.144 0 0 7.210667-4.864 11.648-1.92 5.034667 2.176 11.434667 4.010667 16.469333 1.706667l-69.973333 14.165333z" fill="#9F8504" p-id="5287"></path><path d="M433.066667 512.042667c-1.066667-0.426667-1.706667-2.133333-3.157334-1.493334-4.693333 2.005333-9.813333 1.28-14.72 2.133334-2.346667 0.426667-3.498667 1.621333-4.437333 3.498666a93.312 93.312 0 0 1 0-17.493333h1.109333c6.442667-0.426667 12.928-0.725333 19.285334-1.152 0.682667-0.341333 1.450667-0.768 2.176-0.853333a19.84 19.84 0 0 1 6.314666 0.256c4.864 1.493333 10.154667-0.426667 14.933334 1.749333 3.370667 3.541333 8.405333 4.224 12.373333 6.912 3.242667 2.133333 4.608 4.437333 2.986667 8.106667-0.597333 1.28-0.896 2.688-1.28 4.053333-1.834667 6.528-5.845333 10.325333-12.885334 10.24l-22.656-15.957333z" fill="#AB2C16" p-id="5288"></path><path d="M455.168 539.733333c1.322667 0.512 2.688 0.938667 3.925333 1.536 11.349333 4.778667 9.941333 7.637333 7.424 17.877334-0.768 3.2-4.949333 3.626667-5.802666 6.954666-0.085333 0.426667-1.365333-0.341333-1.706667-0.981333-0.981333-2.048-1.92-4.138667-0.554667-6.229333 2.090667-3.370667 0.512-5.034667-2.56-6.314667a3.498667 3.498667 0 0 1-1.28 0.341333l-8.362666-2.773333c-3.669333-1.493333-7.381333-3.157333-11.093334-4.608-2.474667-0.512-2.816-3.285333-4.736-4.352-0.938667-0.597333-1.962667-1.109333-2.773333-1.749333a12.757333 12.757333 0 0 1-3.541333-17.237334 5.546667 5.546667 0 0 1 4.608-2.773333c1.706667 0 3.029333-0.597333 4.224-1.749333l22.229333 22.058666z" fill="#AB1618" p-id="5289"></path><path d="M258.986667 538.026667c-2.944 1.28-15.872 10.368-18.773334 11.477333-2.730667 1.408-5.674667 2.090667-8.362666 3.328-0.981333 0.512-2.090667 0.170667-3.157334 0.085333-2.773333 1.450667-2.432 3.712-1.621333 6.058667 0.768 2.176 1.194667 4.437333-1.066667 5.888-2.56 1.493333-7.424-8.490667-8.917333-9.685333-5.12-4.010667 4.181333-13.824 9.984-16.938667 7.552-5.376 24.021333-18.773333 25.856-20.138667l6.058667 19.882667z" fill="#AA1718" p-id="5290"></path><path d="M252.416 516.992c3.413333 0.682667 8.96 3.84 9.514667 7.722667 0.64 4.864 2.858667 10.154667-3.456 13.525333l-6.058667-21.248z" fill="#AA1718" p-id="5291"></path><path d="M274.688 509.781333c-21.248-6.698667-38.698667 18.304-43.733333 18.218667-6.826667-1.024-19.328-10.581333-18.133334-17.109333 0.64-3.626667 13.909333-9.685333 17.066667-11.178667 1.152-1.706667 40.832-4.138667 44.714667-1.194667v11.264h0.085333z" fill="#A9221A" p-id="5292"></path><path d="M259.498667 597.333333c-0.853333 1.109333-2.133333 1.365333-3.370667 1.450667-9.642667 0.213333-19.413333 0.213333-29.013333 0-1.28 0-2.56-0.341333-3.413334-1.450667 0.597333-5.802667 4.224-10.410667 5.802667-15.872 0.597333-0.512 1.365333-1.066667 2.005333-0.896 7.253333 1.408 14.378667 0 21.589334 0 1.194667 0.981333 1.92 3.754667 1.92 3.754667l4.48 13.013333z" fill="#B8A203" p-id="5293"></path><path d="M282.154667 597.418667c1.408-1.408 0.853333-3.285333 0.853333-4.864V540.16c0-1.28-0.085333-2.517333 0-3.754667 0.213333-1.877333 0.554667-3.968 2.688-4.565333 2.517333-0.64 1.493333 2.218667 2.56 3.029333 0.341333 0.256 0.853333 0.341333 1.365333 0.426667 1.322667 1.365333 1.28 3.2 1.28 4.864 0 18.901333 0.042667 37.888-0.085333 56.746667 0 2.346667 1.066667 6.485333-4.053333 5.034666l-4.608-4.522666z" fill="#A21417" p-id="5294"></path><path d="M352.597333 600.021333c4.437333 1.834667 7.04 7.296 12.8 6.741334 3.285333 1.322667 6.826667 0.64 10.112 1.664 1.493333 0.512 3.925333 0.896 1.066667 2.986666-5.290667 0.384-10.069333 2.816-15.189333 3.712-15.616 3.285333-31.146667 2.261333-46.421334-1.92h0.085334c-1.28-1.024-2.944-0.682667-4.266667-1.28-1.536-0.64-3.029333-1.493333-2.346667-3.669333 0.725333-0.682667 6.954667-0.341333 7.978667-0.426667 2.005333-0.170667 8.789333-2.986667 10.709333-3.626666 0.853333-0.213333 13.226667-8.874667 16.042667-16.341334l9.386667 12.16z" fill="#CECECA" p-id="5295"></path><path d="M454.570667 552.533333l1.365333 0.128c0.085333 10.581333-1.194667 21.162667 0.725333 31.744a11.733333 11.733333 0 0 0 2.048 4.522667c-0.512 2.602667-2.688 2.346667-4.48 2.346667-7.210667 0.256-14.336 0.256-21.546666 0-1.877333-0.042667-4.693333 0.341333-4.224-3.242667 3.114667-2.56 2.432-6.485333 2.56-9.514667 0.469333-11.562667 0.213333-23.168 0.213333-34.645333 0-0.853333-0.597333-1.749333-0.896-2.602667 2.346667-0.085333 2.56 2.688 4.522667 3.2-0.512 9.642667-0.256 19.285333-0.256 28.928 0 5.290667 0.426667 5.632 5.546666 5.717334 2.346667 0.085333 4.693333-0.085333 6.954667 0.085333 6.144-0.341333 6.144-0.426667 6.229333-6.442667v-14.890666c0.170667-1.92 0-3.754667 1.28-5.376z" fill="#A89209" p-id="5296"></path><path d="M276.48 531.712c4.394667-0.853333 5.546667 1.066667 5.504 5.333333-0.256 16.213333-0.170667 32.426667-0.085333 48.64 0 3.413333-0.170667 6.784-1.749334 9.898667-3.114667-1.621333-3.541333-4.778667-4.650666-7.68 0.341333-0.469333 0.768-1.066667 0.597333-1.706667-2.986667-16.810667-0.341333-33.749333-1.152-50.645333 0-1.408 0.426667-2.773333 1.493333-3.84z" fill="#B8A000" p-id="5297"></path><path d="M231.210667 456.405333c0.426667-4.138667-4.48-4.949333-5.12-8.405333 2.133333-1.365333 5.034667 0.256 7.125333-1.536 6.186667 0.768 5.376-4.352 6.442667-7.808v-0.042667c1.792-1.024 2.56 0 3.114666 1.493334 1.834667 4.864 1.834667 4.864 5.461334 1.152l4.522666 0.512c-1.066667 2.688-1.706667 5.12 2.346667 5.802666 0.597333 0.085333 0.938667 0.768 0.597333 1.450667l-2.773333 3.754667c-2.986667 4.778667 1.834667 3.626667 3.626667 4.864l0.085333 1.621333c-0.512 0.896-1.28 1.408-2.261333 1.152-6.826667-1.322667-13.696-0.426667-20.565334-0.768-2.048-0.085333-4.053333 0-5.461333-1.578667 0.554667-1.493333 2.133333-0.682667 2.858667-1.706666z" fill="#6C5603" p-id="5298"></path><path d="M442.581333 534.528c-8.917333-3.157333-8.917333-3.157333-9.258666-12.16l-0.298667-4.608 0.085333-5.717333c1.066667-1.322667 2.090667-2.56 3.925334-0.981334 2.005333 0.853333 4.010667 1.493333 6.314666 1.408 3.157333-0.170667 4.949333 1.578667 5.290667 4.693334 0.426667 4.778667 0.426667 9.642667 0 14.464-0.426667 3.925333-2.986667 4.096-6.058667 2.901333z" fill="#D9D7D7" p-id="5299"></path><path d="M433.237333 497.621333l-2.133333-0.085333c0.298667-6.656 1.152-13.269333 0.853333-19.84-0.128-3.925333 0-8.192-2.56-11.733333 0.341333-2.432 2.346667-2.261333 3.925334-2.346667 6.570667-0.256 13.098667-0.341333 19.626666 0 1.792 0.085333 4.48-0.170667 3.712 3.2-2.005333 1.322667-0.256 2.858667-0.256 4.266667a8.533333 8.533333 0 0 1-1.493333 5.205333 73.813333 73.813333 0 0 0-14.250667-0.512c-5.632 0.341333-5.888 0.597333-5.973333 6.4-0.085333 3.584 0 7.125333 0 10.752-0.170667 1.578667-0.085333 3.328-1.450667 4.693333z" fill="#A28F08" p-id="5300"></path><path d="M456.661333 466.773333c-0.085333-1.28-0.853333-1.834667-2.090666-1.834666-7.893333 0-15.701333 0-23.594667 0.085333-0.469333 0-0.981333 0.597333-1.493333 0.853333-2.986667-1.365333-3.285333-3.925333-2.56-6.613333 0.981333-3.413333 4.053333-2.688 6.570666-2.858667 2.858667-1.450667 5.717333 0.426667 8.576 0.170667 4.437333-0.426667 8.746667-0.682667 12.672-3.029333 0.256 0.981333 0 2.090667 1.194667 2.773333 4.864 2.773333 5.12 6.826667 0.725333 10.496z" fill="#C1A900" p-id="5301"></path><path d="M428.544 588.032c0.170667 1.28 0.938667 1.834667 2.176 1.834667 8.832 0 17.664 0 26.453333-0.085334 0.512 0 1.024-0.597333 1.536-0.938666 1.578667 2.602667 0.426667 6.144 2.773334 8.533333a4.309333 4.309333 0 0 1-3.413334 1.28c-9.386667 0.213333-18.773333 0.341333-28.074666-0.042667-1.28-0.085333-2.56-0.256-3.370667-1.450666 0.768-2.986667-1.578667-6.698667 1.92-9.130667z" fill="#C1AB01" p-id="5302"></path><path d="M255.146667 463.36c-1.28 3.712-0.597333 11.349333-2.389334 14.933333-3.413333-2.56-7.381333-2.56-11.52-2.688-3.669333-0.085333-7.509333 1.109333-10.965333-1.066666-2.773333-1.962667-0.768-8.832-2.176-11.093334h27.008v-0.085333z" fill="#A38F07" p-id="5303"></path><path d="M229.973333 499.626667l0.384-25.173334c6.4-0.085333 12.757333 0 19.072-0.256 3.242667-0.170667 2.346667 2.688 3.413334 4.096 0 2.133333 0 4.266667-0.085334 6.4a23.04 23.04 0 0 0-0.170666 8.618667c0.170667 1.536 0.512 3.029333-0.554667 4.394667l-22.101333 1.92z" fill="#B7B1AB" p-id="5304"></path><path d="M254.762667 466.901333c-0.128-1.621333-1.237333-1.962667-2.645334-1.962666h-21.077333c-1.450667 0-2.432 0.341333-2.688 1.962666-3.029333-1.792-4.565333-4.266667-3.456-7.722666 1.024-3.114667 3.797333-2.688 6.229333-2.773334l-1.962666 1.664c9.258667 0.853333 18.389333-0.682667 27.392 1.194667 1.493333 2.986667 0.597333 5.546667-1.792 7.637333z" fill="#BCA600" p-id="5305"></path><path d="M442.581333 534.528c3.498667 0.512 5.12-0.725333 4.778667-4.608-0.341333-3.84-0.170667-7.808-0.085333-11.648 0.085333-3.712-1.408-5.632-5.205334-5.376-1.92 0.085333-3.754667-0.170667-5.12-1.792l13.226667 1.365333a1.536 1.536 0 0 1 1.706667 0.256c5.034667 4.181333 2.346667 10.24 3.797333 15.274667-1.024 3.84-0.768 7.808-0.597333 11.733333-4.522667-0.64-8.32-3.584-12.501334-5.205333z" fill="#BDB7B0" p-id="5306"></path><path d="M440.832 474.453333c3.584 0 7.125333 0 10.709333-0.085333 1.621333 0 2.688 0.512 3.456 1.92l-0.426666 22.4a42.026667 42.026667 0 0 1-14.848-0.725333c6.144-1.621333 6.954667-6.144 6.4-11.434667a34.986667 34.986667 0 0 1 0-4.181333c0.128-3.029333-0.170667-5.632-3.968-6.144-0.853333-0.256-1.408-0.853333-1.322667-1.749334z" fill="#C3C3C0" p-id="5307"></path><path d="M423.68 609.024c-2.090667-3.968-1.706667-4.949333 1.92-6.485333a19.456 19.456 0 0 1 13.653333-0.512c3.413333 1.109333 7.082667 0.938667 10.453334-0.426667 4.778667-1.834667 11.605333 0 14.08 3.712 0.682667 1.024 0.597333 2.133333 0.384 3.2l-40.490667 0.512z" fill="#1C5DA3" p-id="5308"></path><path d="M454.741333 453.546667c-6.272 6.698667-13.866667 4.437333-21.248 2.944a7.466667 7.466667 0 0 0-3.157333-5.546667c6.528-4.138667 13.738667-3.797333 20.949333-2.986667 1.792 0.213333 3.456 1.28 4.565334 2.986667l-1.109334 2.56z" fill="#685203" p-id="5309"></path><path d="M464.170667 610.688c0.298667 3.2 0.213333 5.461333-4.138667 3.541333a17.365333 17.365333 0 0 0-12.373333 0c-2.389333 0.853333-4.821333 1.322667-7.253334 0.298667a18.645333 18.645333 0 0 0-14.08-0.213333c-1.877333 0.64-3.413333 1.066667-3.882666-1.536 0.085333-0.981333-0.256-2.090667 0.853333-2.858667a24.618667 24.618667 0 0 1 16.426667-0.853333 15.786667 15.786667 0 0 0 9.642666-0.426667 19.328 19.328 0 0 1 14.805334 2.048z" fill="#27629F" p-id="5310"></path><path d="M260.992 598.186667c2.176 4.949333 1.834667 10.837333 1.450667 16.853333-4.394667-1.493333-12.8-2.517333-17.237334-0.64a10.666667 10.666667 0 0 1-7.68-0.085333 24.832 24.832 0 0 0-15.061333 0c-4.778667 0.64-1.365333-15.146667-1.578667-16.981334l40.106667 0.853334z" fill="#2C6397" p-id="5311"></path><path d="M439.637333 449.024c-3.285333 0-5.888 2.901333-9.301333 1.92a2.901333 2.901333 0 0 1-1.792-1.92c-0.170667-3.882667 1.962667-6.826667 5.888-6.314667 6.442667 0.853333 12.842667-0.341333 19.2 0.682667 2.048 0.256 4.224 0.64 5.077333 2.858667 0.981333 2.56-1.536 3.328-2.858666 4.778666v-0.085333l-16.213334-1.92z" fill="#7D2E0E" p-id="5312"></path><path d="M455.936 450.986667c3.328-4.821333 2.688-6.4-3.370667-6.528-2.688 0-5.802667-2.005333-8.234666 0.938666-2.432-2.176-5.461333-0.768-8.106667-1.450666-3.712-0.896-6.826667 1.365333-7.68 5.12-1.578667-4.010667-0.341333-6.272 3.370667-7.637334 3.541333-1.322667 7.893333-0.554667 10.581333-4.181333 0.597333-0.768 1.749333-0.682667 2.517333 0.085333 2.56 2.986667 6.229333 3.797333 9.898667 4.096 2.432 0.256 4.352 0.938667 4.608 3.712 0.170667 2.688 0.170667 5.461333-3.584 5.888z" fill="#976C02" p-id="5313"></path><path d="M423.082667 610.602667l-0.64 2.176c-0.341333-4.693333-0.682667-9.301333 0.085333-13.994667 0.256 0.085333 0.554667 0.426667 0.853333 0.298667 9.130667-2.56 18.432 2.474667 27.690667-0.426667a15.018667 15.018667 0 0 1 12.928 2.56 6.272 6.272 0 0 1-0.256 4.096c-5.034667-1.749333-9.685333-5.290667-15.616-1.706667-2.773333 1.706667-6.912 1.28-9.984-0.426666-5.12-2.730667-9.770667-0.042667-14.378667 1.28-1.92 0.597333-1.493333 2.688-0.085333 4.224 0.768 0.896-0.256 1.322667-0.597333 1.92z" fill="#AEB1B6" p-id="5314"></path><path d="M262.741333 610.432a15.104 15.104 0 0 1-5.461333-0.512c-3.925333-0.853333-7.936-1.28-11.733333 0.597333a7.68 7.68 0 0 1-5.461334 0.597334 23.893333 23.893333 0 0 0-15.872-0.426667c-0.896 0.341333-2.133333-0.085333-3.157333-0.170667v-2.005333c6.016-2.602667 12.074667-3.84 18.261333-0.256a4.821333 4.821333 0 0 0 4.565334 0c5.632-3.413333 11.221333-2.432 16.853333-0.170667 0.938667 0.426667 1.450667-0.170667 2.005333-0.682666v3.029333z" fill="#A3B1C1" p-id="5315"></path><path d="M351.914667 382.336c-0.682667 0-2.56 1.365333-3.2 1.365333-1.493333-0.085333-1.834667-1.28-3.370667-1.365333-0.426667-0.085333-2.517333 0.170667-2.816 0-1.024-0.341333-6.229333 0-7.082667-0.725333-0.256-0.341333 0.597333-4.821333 0.512-5.205334 0.341333-1.792 3.413333-3.2 2.261334-4.650666 1.365333-1.493333 0.341333-2.858667-0.256-4.266667-1.28-2.858667-0.725333-5.205333 2.133333-6.826667 1.706667-0.981333 3.328-1.493333 4.778667 0.768 1.322667 2.261333 4.522667 4.053333 0.725333 6.912-1.408 0.981333-0.341333 2.133333 0.341333 3.242667-0.085333 1.365333-1.28 2.773333 0.170667 3.84 0.938667 0.810667 1.706667-0.128 2.56-0.725333 1.152 2.773333-0.213333 5.717333 3.242667 7.68z" fill="#B79301" p-id="5316"></path><path d="M464.085333 601.685333c-1.877333-0.256-3.712-0.085333-5.461333-1.109333-2.773333-1.664-5.632-1.365333-8.576 0a13.994667 13.994667 0 0 1-11.434667 0.384c-4.352-1.706667-8.448-2.133333-12.586666 0.426667-2.56 1.706667-3.584 0.682667-3.584-2.389334 0.981333-1.578667 2.56-1.365333 4.010666-1.664l34.858667 0.085334c2.56 0.213333 3.84 1.408 2.773333 4.266666z" fill="#1F5E9B" p-id="5317"></path><path d="M220.970667 601.045333c6.016-1.28 11.946667-2.688 18.261333-0.085333 2.56 0.981333 5.802667 0.426667 8.746667-0.597333 2.261333-0.853333 4.864-1.578667 7.296-0.597334 1.706667 0.682667 4.565333 1.365333 3.84 3.285334-0.810667 2.517333-2.730667 0.085333-4.096-0.426667-1.664-0.597333-3.498667-1.024-5.034667-0.256a19.114667 19.114667 0 0 1-16 0.085333 7.765333 7.765333 0 0 0-7.594667 0.853334c-1.493333 1.152-3.413333 1.322667-5.333333 0.981333l-0.085333-3.242667z" fill="#ABB4BD" p-id="5318"></path><path d="M423.082667 611.328l0.768-2.389333a15.616 15.616 0 0 1 13.525333-1.450667c3.370667 1.066667 6.869333 2.261333 10.410667 0.384 5.546667-2.986667 11.008-0.213333 16.384 0.981333v2.56a190.293333 190.293333 0 0 0-41.088-0.085333z" fill="#A8B7C5" p-id="5319"></path><path d="M257.536 505.173333c-4.778667-2.688-1.28-4.138667 0.768-5.802666 0.426667-0.341333 0.768-1.024 1.109333-1.493334l2.944 0.085334c-1.024 3.498667 0.469333 6.954667 0.085334 10.496l-4.906667-3.285334z" fill="#B7600D" p-id="5320"></path><path d="M251.946667 512c0.64 1.962667-0.170667 4.181333 0.896 6.101333v0.085334c-0.256 3.328-1.152 6.698667-0.341334 10.069333 0.512 2.005333-0.896 2.346667-2.346666 2.517333-2.261333 0.085333-2.944-1.578667-3.114667-3.370666a56.618667 56.618667 0 0 1 0.085333-12.501334c0.341333-2.602667 1.621333-4.437333 4.821334-2.944z" fill="#CFCAC7" p-id="5321"></path><path d="M255.914667 449.365333c0 2.986667 0 6.058667 0.426666 9.088 2.346667 21.546667-1.962667 27.989333-16.768 24.618667-4.522667-5.077333-7.296-12.501333-10.325333-19.2 7.082667-12.8 18.688-5.76 26.666667-14.506667z m22.101333 10.112c-1.706667 8.405333-2.133333 20.906667-10.069333 18.517334-6.229333-1.706667-8.192-10.453333-6.442667-20.565334 1.28-7.082667-2.389333-7.722667-5.589333-8.746666-0.213333-5.717333-0.426667-12.117333 4.266666-13.482667 3.242667-0.682667 4.949333 4.053333 5.376 8.405333 1.28 11.477333 10.325333 7.082667 12.458667 15.872z" fill="#935308" p-id="5322"></path><path d="M226.090667 448c-0.853333-2.944 0.170667-4.864 3.072-5.802667 2.858667 0.341333 3.541333 2.56 4.053333 4.778667l-7.125333 1.024z" fill="#9E2C11" p-id="5323"></path><path d="M255.701333 449.024c-0.512-0.341333-0.981333-0.768-1.493333-0.853333-1.621333-0.256-3.456 0.085333-4.053333-2.176-0.597333-2.346667 1.194667-3.2 2.602666-4.266667 3.029333 1.664 5.717333 3.328 2.986667 7.253333z" fill="#9D400E" p-id="5324"></path><path d="M384.298667 398.037333c-0.341333 10.453333 0.298667 21.546667-6.570667 22.272-4.992 0-9.386667-4.181333-10.624-16-1.536-14.634667-1.877333-28.544 7.210667-32.725333 3.413333 9.045333 6.528 18.090667 9.984 26.453333z m-38.4-25.045333c15.274667 2.090667 11.861333 20.906667 7.168 40.362667-7.168 11.818667-12.8 8.32-17.493334-7.68-0.896-17.365333 5.333333-23.637333 10.325334-32.682667z" fill="#7B7E43" p-id="5325"></path><path d="M256.554667 457.728l-5.632-0.256c0-2.048 0.768-3.498667 2.005333-4.608-1.152 3.328 2.261333 3.328 3.626667 4.864z" fill="#BCA600" p-id="5326"></path><path d="M372.224 564.608c-2.176-2.602667-4.096-5.034667-7.893333-6.144-4.181333-1.152-3.669333-6.016-5.12-9.386667-0.426667-1.024 1.28-2.005333 2.261333-1.194666 3.2 2.688 9.173333 2.56 9.088 8.832 0 1.834667 1.92 4.096 3.584 3.413333 1.877333-0.64 1.365333-3.413333 0.341333-4.864-2.005333-2.816-2.986667-5.290667-0.768-8.448 1.024-1.450667-0.469333-3.029333-1.578666-4.053333-1.28-1.152-2.261333 0-3.2 0.853333-1.749333 1.493333-4.010667 2.005333-5.461334 0.512-1.408-1.621333-0.085333-4.053333 0.938667-5.632 1.194667-2.005333 3.285333 0 4.693333-0.170667 4.949333-0.341333 9.898667 0.512 14.805334-0.085333 0.896-0.085333 1.706667-0.938667 2.56-0.853333 4.394667 0.085333 8.32 2.986667 13.269333 0.426666 2.218667-1.066667 4.394667 2.602667 2.432 5.632-1.834667 2.858667-2.005333 5.376 0.341333 7.978667 0.853333 0.853333 0.938667 2.133333 0.597334 3.114667-2.261333 6.954667-0.085333 13.994667-0.512 20.906666a35.797333 35.797333 0 0 1-5.461334 15.018667c-1.493333 2.432-5.376 3.413333-6.4 6.869333a1.28 1.28 0 0 1-0.64 0.682667c-5.717333 0.597333-10.922667 4.352-16.853333 2.517333-0.170667 0-0.256-0.256-0.426667-0.256-7.893333 1.109333-11.605333-5.632-17.066666-8.96-0.725333-0.512-2.005333-1.365333-1.92-1.962666 0.768-5.802667-2.986667-10.666667-2.944-16.64 0.085333-4.906667 1.365333-10.026667 0.085333-14.848-0.597333-2.261333-0.725333-3.328 1.28-3.328 2.346667 0 2.986667-4.565333 5.205333-2.346667 2.005333 1.92-1.194667 3.669333-1.792 5.589333-0.554667 1.962667-0.896 4.053333 0.512 5.802667 1.024 1.28 2.986667 1.536 3.84 0.853333l12.202667 0.170667" fill="#C29C04" p-id="5327"></path><path d="M335.701333 546.133333a17.834667 17.834667 0 0 1-9.045333-17.194666c0.256-7.082667 2.858667-12.928 9.813333-16.213334 6.613333-3.2 15.274667 0.085333 18.901334 7.125334 5.034667 9.813333 1.578667 21.76-7.338667 26.282666-4.096 1.578667-8.192 2.133333-12.330667 0z" fill="#0358B7" p-id="5328"></path><path d="M318.592 523.946667c-12.16 0-32.256 0.597333-32.085333-2.901334 0.256-2.688 1.706667-48.469333 6.4-55.082666 2.517333-3.968 29.184-3.285333 32.554666 0.853333 1.92 2.432 11.008 33.408 0.597334 44.245333l-7.466667 12.928z" fill="#6C5F03" p-id="5329"></path><path d="M328.746667 602.368c-1.536 2.432-4.266667 2.346667-6.485334 3.626667-2.346667-0.426667-1.706667-2.261333-1.706666-3.712v-57.642667c0-1.536-0.426667-3.285333 1.877333-3.626667 5.973333 7.68 4.693333 16.682667 4.693333 25.514667v31.829333c0.085333 1.578667-0.128 3.2 1.621334 4.010667z" fill="#C2AB00" p-id="5330"></path><path d="M337.493333 592.725333a11.093333 11.093333 0 0 1-1.792-6.144c0-8.96-0.170667-18.048-0.170666-27.008 0-1.792-0.981333-4.266667 2.56-4.266666 2.986667 0 4.266667 1.493333 4.181333 4.266666-0.170667 6.954667 0.469333 13.909333-0.426667 20.992-0.170667 1.493333 0.170667 2.986667 0.256 4.608 0.896 3.498667-0.938667 5.973333-3.285333 8.106667a2.474667 2.474667 0 0 1-1.365333-0.554667z" fill="#BAA401" p-id="5331"></path><path d="M386.261333 484.864a3.114667 3.114667 0 0 1-0.853333-2.048c-0.170667-4.010667-1.194667-8.021333 0.341333-12.074667 1.749333-1.322667 3.925333-2.176 5.376-3.925333 1.322667 2.090667 2.688 2.986667 5.205334 1.28 1.322667-0.981333 3.754667-2.218667 5.12-0.64 1.493333 1.792 1.066667 4.266667-0.597334 5.973333-6.144 6.058667-4.864 12.501333-2.176 19.626667 1.28 3.413333-0.341333 6.570667-3.797333 8.533333-5.461333 2.986667-5.461333 2.986667-2.005333 8.021334 1.493333 2.176 0.597333 3.797333-0.938667 5.376-2.090667-2.346667-3.157333-5.205333-4.693333-7.893334-1.92-3.370667 1.450667-4.778667 3.2-6.698666-3.626667-1.109333-3.626667-1.109333-3.84-3.797334l-0.341334-11.733333z" fill="#B57D95" p-id="5332"></path><path d="M386.346667 496.853333c1.152 3.370667 4.949333 0.938667 6.954666 2.986667-1.536 1.024-2.944 1.706667-4.138666 2.901333-1.664 1.749333-2.090667 2.944-0.213334 5.034667 1.706667 1.92 2.986667 4.266667 2.986667 7.125333l-0.298667 6.314667c-3.114667 0.853333-4.992-2.133333-7.594666-2.688-1.408-3.541333 2.304-3.029333 3.712-4.693333-1.578667-2.048-6.869333 1.834667-6.229334-3.712-0.896-1.450667-0.64-3.029333-0.426666-4.437334 1.109333-6.4 1.024-6.570667-5.333334-6.997333l-0.853333-2.56c-1.109333-1.877333-2.773333-3.712-0.768-5.888 2.432-2.688 5.546667-2.432 8.661333-1.621333a9.130667 9.130667 0 0 1 3.541334 8.234666z" fill="#E073A4" p-id="5333"></path><path d="M386.261333 470.656v12.074667c-3.968 5.546667-6.144 5.973333-12.202666 2.389333a57.557333 57.557333 0 0 0-4.522667-2.474667c-1.578667-0.725333-2.432-1.92-1.024-3.584 1.621333-0.341333 3.712 0.341333 4.565333-1.834666 0.896-2.56 2.986667-4.394667 4.010667-7.168 0.768-2.005333 4.864-1.749333 7.552-2.090667 1.109333 0.597333 2.176 1.194667 1.621333 2.688z" fill="#E46EA4" p-id="5334"></path><path d="M362.837333 484.693333l-0.170666 0.085334c-2.688 0.341333-4.48-1.024-5.632-3.285334-0.341333-0.682667-0.682667-1.834667-1.194667-1.834666-3.925333-0.426667-4.522667-1.365333-3.498667-5.802667 0.64-2.944-0.256-4.437333 3.413334-3.541333 0.853333 0.170667 1.450667-0.341333 2.048-0.896 0.853333-0.853333 1.578667-2.218667 2.986666-1.109334 0.938667 0.768 1.194667 2.005333 0.512 2.944-1.578667 2.517333 0.853333 3.925333 1.536 5.802667v7.637333z" fill="#AA7488" p-id="5335"></path><path d="M380.458667 506.154667c-1.28 0.341333-1.536 1.28-1.706667 2.432-0.853333 6.997333-0.853333 6.997333-7.552 5.12-1.578667-0.213333-3.072-0.981333-3.84-2.432-0.853333-1.706667-1.493333-3.925333 2.005333-3.157334 3.370667 1.749333 3.797333-0.256 3.370667-2.773333-0.256-1.877333-1.365333-3.968 0.853333-5.034667a7.765333 7.765333 0 0 1 6.784-0.341333c3.84 1.749333 0.597333 4.096 0.085334 6.186667z" fill="#E073A4" p-id="5336"></path><path d="M384.298667 468.650667c-2.090667-0.085333-3.498667 2.944-5.973334 1.28-0.426667-0.256-0.981333 0.128-0.810666 0.64 1.28 4.138667-2.346667 4.778667-4.437334 6.570666-0.938667-2.133333-3.2-2.346667-4.778666-3.456-1.024-0.682667-2.048-1.578667-1.621334-3.114666 0.341333-1.322667 1.621333-0.981333 2.688-1.28 4.864-1.066667 10.069333-1.834667 11.349334-8.021334 1.066667 2.56 2.517333 4.949333 3.584 7.381334z" fill="#A96470" p-id="5337"></path><path d="M361.813333 495.018667c-0.341333 1.066667-0.597333 2.090667-0.853333 3.157333-0.554667 2.133333-1.152 2.133333-3.157333 0.938667-3.84-2.176-3.626667-5.632-3.712-9.045334-0.085333-1.877333 1.706667-1.621333 2.773333-1.536 2.005333 0.170667 4.010667 0.512 5.973333 0.768 0.554667 1.322667-0.341333 2.005333-1.194666 2.56-1.92 1.194667-0.853333 2.133333 0.170666 3.157334z" fill="#A67B8D" p-id="5338"></path><path d="M369.365333 508.117333c-2.56 0.725333-2.176 2.090667-0.597333 3.413334 0.853333 0.682667 2.346667 0.597333 2.432 2.176-2.517333 4.650667-1.834667 3.797333-5.76 0.853333-4.053333-2.986667-0.682667-5.546667-1.024-8.234667-0.085333-0.981333 1.28-1.066667 2.261333-1.066666 2.005333 0 3.029333 0.853333 2.688 2.858666z" fill="#AC6985" p-id="5339"></path><path d="M361.813333 495.018667c-1.28-0.256-3.114667 0.64-3.541333-1.28-0.298667-1.749333 1.194667-2.261333 2.602667-2.56 0.938667-0.298667 1.536-0.938667 1.962666-1.877334l0.853334-0.768c2.304 1.28 4.608-2.261333 7.125333-0.170666 0.554667 0.512 2.005333 0 1.92 1.365333-0.085333 0.981333-1.109333 1.322667-2.005333 1.493333-2.986667 0.512-5.802667 1.194667-7.893334 3.626667l-1.024 0.170667z" fill="#DB6C9F" p-id="5340"></path><path d="M362.837333 484.693333c-2.56-1.962667-2.602667-5.717333-5.461333-7.466666-0.768-0.512-1.194667-1.109333-0.597333-1.877334 0.682667-0.896 1.408-0.426667 1.92 0.085334 1.194667 1.28 2.432 1.877333 4.138666 1.621333 0.64 0.981333 2.56-0.170667 2.773334 1.578667 0 0.768-0.170667 1.578667 0.170666 2.261333 0.469333 1.194667 2.346667 1.834667 1.152 3.541333-1.152 1.92-2.688 0.085333-4.096 0.256z" fill="#DD6C9F" p-id="5341"></path><path d="M384.128 518.528c3.413333-1.621333 4.821333 2.432 7.594667 2.688 0 1.408-0.426667 3.413333-2.048 2.56-2.261333-1.066667-6.869333-0.298667-5.546667-5.248z" fill="#8A5664" p-id="5342"></path><path d="M328.533333 425.386667c-0.298667-0.426667-0.426667-1.152-1.237333-0.981334-0.426667 0.170667-0.213333 0.768-0.213333 1.28-2.602667 5.248-6.997333 6.186667-12.288 2.645334-1.706667-3.584 1.109333-4.266667 3.413333-5.248 1.450667-0.768 2.730667-1.706667 2.901333-3.456-0.597333-2.176-2.346667-1.92-3.968-2.005334-1.066667-0.085333-2.517333 0.426667-2.517333-1.536-0.469333-2.688-3.754667-4.010667-2.858667-7.808a12.202667 12.202667 0 0 1 2.858667-6.101333c5.717333-4.053333 12.458667-4.266667 19.072-4.864 3.413333 0.213333 2.986667 2.517333 2.261333 4.608-0.768 2.133333-0.853333 3.754667 1.493334 5.034667 3.882667 2.005333-1.493333 4.181333-0.042667 6.272-0.170667 2.602667-2.474667 1.621333-3.797333 2.261333-1.749333 0.938667-4.352 1.28-2.858667 4.394667 2.346667 1.834667 5.12 1.493333 7.893333 1.493333 2.005333 1.28 1.408 3.2 1.408 4.949333l-0.896 1.024L328.533333 425.386667z" fill="#A91617" p-id="5343"></path><path d="M349.653333 416.085333c-4.224-1.92-5.034667-5.205333-2.005333-8.874666a5.589333 5.589333 0 0 0 0.981333-4.394667c-0.426667-3.669333 1.365333-4.778667 4.608-4.352 5.205333-0.682667 10.24-0.426667 14.293334 3.626667 0.682667 1.578667 2.773333 0.426667 3.541333 1.92 2.133333 9.216 2.133333 9.216-6.485333 14.08-2.688 1.536-3.114667 3.029333-0.170667 4.650666l1.28 0.469334c2.090667 0.853333 6.016-0.213333 4.437333 4.394666-1.834667 3.925333-5.376 2.858667-8.490666 2.688-2.688-0.170667-3.285333-2.346667-3.584-4.608-0.170667-0.512-0.085333-1.450667-0.682667-1.450666-0.512 0-0.682667 0.938667-1.109333 1.365333-0.256 2.090667-2.432 2.901333-3.114667 4.778667-3.925333 0.512-6.698667-1.194667-8.533333-4.650667-0.682667-1.493333-0.597333-2.730667 1.066666-3.584a6.528 6.528 0 0 1 1.877334-0.341333c1.834667-0.256 4.181333 0.085333 4.949333-1.834667 0.853333-2.261333-2.346667-2.176-2.858667-3.84z" fill="#AA1718" p-id="5344"></path><path d="M279.296 415.146667c-0.341333-2.261333 0.170667-4.906667 2.602667-6.528 2.133333-3.114667 5.034667-3.754667 8.490666-3.114667 1.834667 0.341333 3.584 0 5.461334-0.426667 4.437333-0.896 8.533333-0.725333 10.666666 4.266667 0.298667 0.384 0.981333 0.810667 0.896 1.024-1.152 3.456-0.682667 7.509333-3.584 10.24-2.133333 2.688-1.109333 3.968 2.005334 4.224 1.066667 0.085333 2.133333-0.341333 3.242666 0.085333 2.304 1.706667 2.389333 3.413333 0.341334 5.376-3.669333 4.010667-4.608 3.925333-11.392-0.853333-1.365333 1.493333-0.085333 4.608-2.858667 5.205333-1.834667 0.426667-3.285333-0.341333-4.608-1.578666l-0.597333-1.962667c-6.485333-0.853333-7.808-3.584-9.728-9.130667l-0.938667-6.826666z" fill="#AA1618" p-id="5345"></path><path d="M385.493333 431.018667c-4.778667 3.029333-7.125333 2.773333-10.496-0.853334-0.853333-5.12-0.768-5.248 3.84-4.010666 1.536 0.426667 2.218667-0.64 3.285334-1.066667 0.341333-0.256 0.768-0.426667 1.109333-0.597333 2.176-1.194667 0.768-2.688-0.170667-3.114667-4.053333-1.749333-4.778667-5.632-6.4-8.96a6.528 6.528 0 0 1-0.170666-1.365333c0.170667-0.768 0.768-1.066667 1.28-1.408 1.834667-4.608 5.461333-5.376 9.728-4.48 1.834667 0.426667 3.626667 0.682667 5.461333 0.426666 4.096-0.554667 7.808 0.170667 10.069333 4.138667 2.944 2.432 1.706667 6.101333 2.773334 9.045333 0.256 0.853333-6.528 5.376-7.637334 5.205334-1.109333-0.085333-2.176-0.426667-3.2-0.341334-1.578667 0.085333-3.242667 0.426667-3.754666 2.176-0.426667 1.706667 1.322667 2.304 2.005333 3.456 0.768 1.194667 3.626667 0.512 2.858667 2.261334a5.12 5.12 0 0 1-4.693334 3.285333c-1.621333 0-3.541333 0.768-4.266666-1.706667-0.298667-0.725333-0.682667-1.408-1.024-2.090666 0-0.213333-0.085333-0.64-0.256-0.64-0.341333 0-0.170667 0.426667-0.341334 0.64z" fill="#A91617" p-id="5346"></path><path d="M370.304 446.890667c5.205333 0.256 6.101333 2.773333-1.024 4.266666-5.632 0-26.368 1.536-26.368 1.536-10.965333 0-29.098667-1.28-30.293333-1.578666-5.973333-1.706667-7.04-3.541333 3.541333-5.632 4.864-0.170667 15.189333-1.621333 26.752-1.621334l27.392 3.029334z" fill="#921B13" p-id="5347"></path><path d="M309.162667 397.781333c-0.426667-3.669333 2.389333-8.362667 6.058666-9.557333a33.28 33.28 0 0 1 17.493334-0.597333c2.304 0.512 3.413333 1.877333 3.754666 4.053333 0.426667 2.517333-0.085333 4.522667-2.688 5.546667l-24.618666 0.554666z" fill="#F9C100" p-id="5348"></path><path d="M367.701333 419.072c-4.608-4.181333-9.514667-5.248-14.293333-7.509333-0.725333-4.736-4.266667-2.133333-4.693333-8.234667-0.426667-7.893333-0.896-13.824 4.437333-15.786667 7.253333-2.602667 13.653333-2.090667 19.072 8.96 2.346667 4.693333 3.797333 10.837333 2.56 17.664-1.365333 6.656-4.565333 4.565333-7.082667 4.906667z m35.328 15.914667a25.386667 25.386667 0 0 0-10.069333-8.533334c-2.176-2.474667-4.693333-3.712-7.125333-3.370666-3.968 0.554667-4.949333-5.76-3.968-10.666667 0.938667-4.522667 0.426667-14.506667 5.546666-12.074667 4.224 2.133333 8.405333 3.328 12.586667 6.485334 4.266667 3.328 6.058667 9.984 6.997333 17.834666 0.554667 5.973333-0.512 10.538667-3.968 10.325334z m-112.64-8.533334c-2.773333 2.432-5.973333 2.432-8.490666 6.442667-1.408-0.170667-3.2 3.669333-4.010667-0.853333a25.685333 25.685333 0 0 1 0.554667-13.824c3.114667-7.893333 6.656-14.72 12.032-14.933334 1.322667 0 2.688-1.194667 4.096-1.706666 7.125333-2.816 8.917333 1.578667 7.381333 16.981333-0.512 4.693333-1.92 4.181333-3.413333 4.352-2.986667 0.170667-5.802667-0.682667-8.149334 3.498667z" fill="#F8BE00" p-id="5349"></path><path d="M344.746667 402.816c-0.298667 1.706667-0.042667 3.797333-2.901334 3.797333-2.176 0-2.688-1.28-2.346666-2.986666 0.341333-2.048 0.512-4.394667 3.157333-4.394667 2.133333 0 2.133333 1.92 2.133333 3.584z" fill="#AFAA83" p-id="5350"></path><path d="M348.16 437.76c-0.853333 4.266667-10.624 4.266667-11.264 0.085333 1.408-6.058667 10.24-4.352 11.221333-0.085333z" fill="#A71716" p-id="5351"></path><path d="M360.874667 441.429333c-1.28-2.773333-1.834667-2.090667 0-3.925333 2.858667-0.512 6.912-0.938667 8.32 2.261333l-0.853334 1.493334c-2.432 1.365333-4.949333 1.706667-7.466666 0.170666z" fill="#208856" p-id="5352"></path><path d="M327.850667 426.922667c-1.28-1.024-3.2-1.792-2.005334-3.968 0.341333-0.554667 1.536-1.024 2.261334-0.896 2.474667 0.682667 2.474667 2.474667 1.877333 4.394666l-2.133333 0.426667z" fill="#B87875" p-id="5353"></path><path d="M356.650667 426.325333c-0.554667-1.664-1.109333-3.413333 1.109333-4.693333 0.426667-0.170667 1.536 0 1.962667 0.213333 1.962667 1.578667 1.536 3.157333-0.128 4.608l-2.986667-0.128z" fill="#B6827B" p-id="5354"></path><path d="M343.125333 399.445333c-1.664-0.085333-2.304-1.194667-2.304-2.645333 0-0.597333 0.128-1.109333 0.512-1.450667a2.986667 2.986667 0 0 1 1.536-0.725333c1.408-0.128 2.816 0.213333 2.816 2.048a3.157333 3.157333 0 0 1-2.56 2.773333z" fill="#AFAA83" p-id="5355"></path><path d="M386.005333 432.512c-1.493333-1.706667-2.304-3.498667 0.426667-4.821333 0.512-0.213333 2.005333 0.128 2.56 0.597333 1.706667 2.176-1.109333 2.901333-1.92 4.224h-1.066667z" fill="#A26E6E" p-id="5356"></path><path d="M440.832 474.453333c6.528 0.170667 7.381333 4.181333 6.528 9.472-0.256 2.005333 0 4.010667 0 6.058667 0 7.125333-0.512 7.637333-7.637333 7.893333l-6.4-0.341333v-16.384c-0.085333-7.296-0.085333-7.296 7.509333-6.698667z" fill="#DADADA" p-id="5357"></path><path d="M451.882667 512.725333l-1.706667-0.256c-0.298667-1.109333-0.810667-2.133333-1.962667-2.261333-4.693333-0.682667-2.432-3.712-1.877333-5.888 0.768-3.2 2.986667-2.346667 5.034667-1.493333 1.792 0.64 2.986667 1.408 1.962666 3.754666-0.768 1.877333-0.938667 4.053333-1.450666 6.144z" fill="#C19305" p-id="5358"></path><path d="M463.573333 510.805333c-0.085333 1.28-0.085333 2.517333-0.341333 3.669334a3.029333 3.029333 0 0 1-1.365333 1.706666c-0.298667 0.128-1.578667-0.341333-1.493334-0.512 0.085333-3.114667-4.693333-3.2-4.096-5.802666 0.469333-2.176 3.328-3.413333 5.674667-3.2 1.877333 0.256 2.346667 2.176 1.621333 4.138666z" fill="#C08E05" p-id="5359"></path><path d="M422.698667 508.928c-3.285333-1.28-4.906667-3.84-6.144-6.698667-0.256-0.597333 0.085333-1.28 0.768-1.450666 1.066667-0.298667 2.261333-0.213333 2.901333 0.768 1.365333 2.005333 2.602667 3.626667 4.650667 0.597333 0.341333-0.512 1.28-0.426667 1.493333 0.341333 0.426667 1.578667-0.512 2.986667-1.066667 4.352-0.426667 1.109333-1.28 2.133333-2.602666 2.133334z" fill="#BE8206" p-id="5360"></path><path d="M443.989333 501.034667c-0.896 1.962667-2.517333 2.986667-2.346666 4.864 0.085333 0.938667-0.085333 2.133333-1.322667 1.962666-0.938667-0.085333-1.28-1.109333-1.536-2.133333-0.853333-4.010667 0.426667-5.248 5.205333-4.693333z" fill="#C08D06" p-id="5361"></path><path d="M431.36 500.778667c3.157333 2.389333 3.84 4.394667 1.621333 6.485333-0.128 0.170667-1.664 0.256-1.92 0.085333-2.517333-2.005333-1.962667-3.968 0.256-6.570666z" fill="#C08906" p-id="5362"></path><path d="M447.274667 580.394667l-10.752 0.341333c-2.005333 0.085333-3.285333-0.512-3.285334-2.858667 0.085333-10.325333 0-20.650667 0-30.976 0-1.28 0.597333-2.048 1.706667-2.56 4.010667 1.28 7.978667 2.730667 11.562667 4.992l0.768 31.061334z" fill="#DADADA" p-id="5363"></path><path d="M454.826667 573.568c0 7.466667 0 7.466667-7.552 6.826667-0.341333-10.325333 0.938667-20.736-0.768-31.061334 2.858667 0.64 5.802667 1.152 8.106666 3.157334l0.213334 21.077333z" fill="#C2C0BD" p-id="5364"></path><path d="M245.333333 580.394667c-14.08 0.554667-14.08 0.554667-14.08-13.226667l-0.128-14.805333c2.346667-2.56 6.016-2.048 8.704-3.797334 6.229333-1.024 6.997333-0.512 7.082667 5.546667 0.128 7.04 0.042667 14.08 0 21.077333-0.085333 1.834667-0.085333 3.754667-1.621333 5.205334z" fill="#D9D9D9" p-id="5365"></path><path d="M237.738667 537.045333c-6.613333 1.792-6.826667 1.621333-6.698667-5.546666v-12.074667c0-3.925333 1.408-6.613333 5.76-6.826667 9.941333-1.152 10.112-1.066667 9.941333 8.832-0.085333 3.968 1.152 8.149333-1.365333 11.861334-2.56 1.322667-5.12 2.517333-7.637333 3.754666z" fill="#D7D5D5" p-id="5366"></path><path d="M245.333333 580.394667c0-8.832-0.298667-17.621333 0.128-26.453334 0.256-4.608-1.408-6.144-5.717333-5.461333 3.029333-1.322667 5.973333-3.2 9.344-3.797333 1.408 1.28 1.408 3.029333 1.408 4.821333v26.112c0 1.706667 0 3.413333-1.322667 4.778667h-3.84z" fill="#ACACAC" p-id="5367"></path><path d="M322.56 441.770667c-2.474667-0.085333-4.266667 0.768-7.082667-1.792 2.005333-3.413333 5.632-3.413333 8.064-2.56 0.981333 0.853333-0.512 3.498667-1.024 4.352z" fill="#1A885C" p-id="5368"></path><path d="M235.946667 498.773333c-2.730667 0.085333-3.84-1.152-3.754667-3.925333a532.053333 532.053333 0 0 0 0-16.384c-0.085333-2.432 0.938667-3.2 3.285333-3.285333 9.898667-0.554667 9.898667-0.554667 9.898667 9.258666 0 1.706667-0.170667 3.413333 0 5.12 0.597333 4.010667-0.768 6.869333-4.693333 8.32-1.450667 1.066667-3.114667 0.896-4.693334 0.896z" fill="#D9D9D9" p-id="5369"></path><path d="M229.546667 503.04c1.28-0.042667 2.474667 0.426667 3.157333 1.536 0.853333 1.322667 0.170667 2.346667-0.853333 3.285333-0.469333 0.426667-0.981333 0.725333-1.322667 1.28-0.853333 1.152 0.597333 4.437333-2.346667 3.413334-2.688-0.938667-3.114667-4.266667-3.2-6.826667 0-2.261333 2.858667-2.090667 4.522667-2.645333z" fill="#C08D06" p-id="5370"></path><path d="M252.501333 499.541333c1.194667 3.2-0.853333 5.546667-2.346666 7.978667-0.853333 1.322667-2.133333 2.005333-3.413334 0.512-1.536-1.792-3.456-3.797333-2.688-6.058667 0.853333-2.346667 2.346667-0.426667 3.584 0.426667 3.285333 1.92 2.602667-2.858667 4.864-2.858667z" fill="#B8700E" p-id="5371"></path><path d="M242.005333 509.696c-1.578667 0.597333-3.072 0.682667-4.352 0.085333-2.858667-1.28-2.688-3.925333-2.517333-6.442666 0-0.938667-0.170667-2.304 1.024-2.389334 2.688-0.085333 1.834667 2.773333 2.986667 4.053334 1.109333 1.408 1.877333 3.114667 2.858666 4.693333z" fill="#BC7B08" p-id="5372"></path><path d="M275.413333 459.349333c0.341333-2.389333 2.218667-1.877333 3.626667-1.877333 19.413333 0 38.869333 0 58.282667-0.085333 3.072 0 3.925333 1.109333 3.925333 4.138666a3170.133333 3170.133333 0 0 0 0 39.936c0 2.261333-0.341333 3.541333-2.986667 4.224-3.882667 0.981333-7.509333 2.901333-11.178666 4.437334-2.474667 0.170667-3.797333-0.512-3.712-3.370667 0.170667-6.016-0.085333-12.074667 1.578666-18.048 0.853333-3.114667 1.792-6.869333-2.432-9.472-2.005333-1.28 2.005333-3.541333 0.853334-5.717333-1.28-1.834667-3.285333-1.408-5.12-1.706667-2.261333-0.298667-4.096-0.554667-3.968-3.84 0.256-3.925333-3.072-4.181333-5.845334-4.266667-2.986667-0.085333-4.778667 1.066667-4.394666 4.437334a3.072 3.072 0 0 1-1.152 2.944c-2.688 1.493333-5.973333-0.597333-8.533334 1.493333-0.128 1.536-0.384 3.114667 0.384 4.650667 0.853333 1.664-0.085333 2.133333-1.408 3.072-2.858667 2.048-3.968 5.461333-1.706666 8.106666 2.986667 3.413333 2.602667 7.125333 2.602666 10.88 0 3.626667 0 7.125333-0.085333 10.752-6.442667-0.853333-4.181333 3.925333-4.608 7.04-0.512 3.712 1.365333 4.608 4.608 4.352 3.114667-0.213333 6.229333-0.042667 9.386667-0.042666 4.224 1.92 8.576 0.469333 12.885333 0.896 1.749333 0.170667 3.925333-0.682667 4.181333 2.346666 0.256 2.602667-0.853333 4.266667-3.285333 4.864a30.336 30.336 0 0 1-7.808 1.28c-9.557333-0.085333-19.029333-0.170667-28.586667 0.085334-4.053333 0.085333-5.632-1.194667-5.504-5.376 0.256-8.32 0.085333-16.554667 0-24.832v-41.301334z" fill="#AB1418" p-id="5373"></path><path d="M297.429333 584.32l-0.426666-52.565333c6.4 0.682667 6.570667 0.938667 6.656 6.997333v65.536c0 1.536-0.597333 2.389333-2.218667 2.474667-1.834667 0.042667-2.432-0.938667-2.432-2.602667 0-5.290667 0-10.666667-0.085333-15.957333-0.085333-1.365333 0.768-3.285333-1.493334-3.84z" fill="#9E1616" p-id="5374"></path><path d="M319.573333 606.805333l-1.834666 1.024c-5.12 0.597333-5.12 0.597333-5.12-4.181333v-66.688c0-1.834667-0.170667-3.754667 1.365333-5.248 3.584-0.682667 4.864 0.64 4.864 4.437333-0.170667 21.077333-0.085333 42.154667-0.085333 63.189334a20.309333 20.309333 0 0 0 0.853333 7.466666z" fill="#9F2014" p-id="5375"></path><path d="M294.229333 604.885333c-2.005333-1.066667-2.944-2.56-2.944-5.12 0.170667-20.736 0.085333-41.472 0.085334-62.293333 0-0.725333 0-1.578667 0.085333-2.346667 0.085333-1.408 0.853333-2.517333 2.346667-2.346666 1.536 0.085333 1.365333 1.450667 1.365333 2.56 0 3.754667-0.256 7.509333 0.085333 11.221333 0.853333 10.581333-0.085333 21.077333-0.085333 31.658667 0 2.133333 0 4.352 1.834667 5.973333 0 5.845333-0.085333 11.818667 0 17.664 0 2.133333-0.256 3.626667-2.773334 3.029333z" fill="#C4AC00" p-id="5376"></path><path d="M304.128 520.448c0.085333-1.109333 0.085333-2.176 0.256-3.285333 0.426667-2.176-1.152-5.546667 2.602667-5.888 4.48-0.426667 6.058667 1.450667 6.229333 6.4 0 0.938667 0.170667 1.834667 0.256 2.773333a10.965333 10.965333 0 0 1-9.344 0z" fill="#133CC3" p-id="5377"></path><path d="M305.664 607.658667l-0.085333-71.168c0-2.133333-0.170667-4.138667 2.986666-4.053334 2.986667 0.085333 2.645333 2.133333 2.645334 3.968 0 23.978667 0 48.085333-0.085334 72.106667l-2.602666 0.426667-2.858667-1.28z" fill="#C3AF00" p-id="5378"></path><path d="M345.045333 606.592c1.664 4.096 3.584 0.725333 5.418667 0.170667 2.218667 0.042667 4.48-0.085333 6.570667 0.298666 2.133333 0.426667 2.432 1.877333 0.682666 3.285334a8.32 8.32 0 0 1-4.693333 1.92c-3.541333 0-7.509333-1.664-10.026667 2.688-0.426667 0.682667-1.493333-2.432-1.92-3.328-0.426667-0.597333-3.925333 1.92-8.789333 1.834666-2.133333-0.597333-4.394667-4.437333-0.426667-6.144 2.005333-0.170667 10.410667 1.450667 10.154667-0.554666 0.981333-0.768 2.005333-0.853333 2.986667-0.170667z" fill="#2A6254" p-id="5379"></path><path d="M339.328 383.232c-1.365333-4.864 1.92-3.925333 3.669333-4.693333 0.341333 0 0.597333 0.128 0.938667 0.128 2.005333 2.773333 2.261333 4.778667-1.408 4.778666a30.592 30.592 0 0 0-3.2-0.213333z" fill="#1F62A4" p-id="5380"></path><path d="M289.877333 420.608l1.322667-0.042667c1.792 0.128 4.565333-0.512 4.650667 1.706667 0.085333 2.048-0.682667 4.992-4.053334 5.077333-2.005333 0-3.754667-0.597333-4.437333-2.688-0.853333-2.261333 1.578667-2.688 2.517333-4.053333z" fill="#A68503" p-id="5381"></path><path d="M375.04 575.744c-0.042667 1.450667 0 2.858667-0.853333 4.138667-1.962667 2.517333-1.792 5.12 0 7.68 0.810667 1.28 0.810667 2.645333 0.810666 4.053333 0 1.450667 0.085333 2.986667-1.493333 3.626667-1.450667 0.597333-2.858667 0.341333-3.797333-0.938667-1.322667-1.664-3.285333-2.346667-5.12-2.986667-1.493333-0.597333-3.541333-0.512-3.712-2.858666-0.128-2.56 0.512-5.205333 2.773333-5.973334 4.053333-1.365333 6.741333-3.2 7.552-7.68 0.170667-0.853333 1.450667-2.730667 3.029333-2.218666 1.450667 0.426667 0.597333 2.090667 0.853334 3.157333z" fill="#AC1E16" p-id="5382"></path><path d="M379.605333 572.501333c3.285333 1.408 0.938667 5.845333 3.541334 7.466667 2.517333 1.408 5.802667 1.578667 7.808 3.925333 2.261333 2.688 1.28 6.485333-2.133334 7.381334a18.688 18.688 0 0 0-5.845333 2.688c-3.2 2.218667-5.973333 0.938667-4.778667-2.261334 2.517333-6.442667 0.256-12.672 0.896-18.944-0.085333-0.085333 0.170667-0.085333 0.512-0.256z" fill="#AC1D16" p-id="5383"></path><path d="M380.458667 563.84a12.288 12.288 0 0 1 5.888-5.034667c2.773333-1.024 4.949333-2.602667 4.864-6.058666-0.085333-1.578667 1.152-2.517333 2.090666-3.498667 0.938667-1.109333 1.749333-3.285333 3.413334-2.176 1.536 0.896-0.426667 2.432-0.554667 3.669333-0.426667 2.602667-1.109333 5.205333 1.152 7.381334 1.450667 1.365333 0.768 2.986667-0.170667 4.224-0.853333 1.322667-2.517333 2.986667-3.669333 2.090666-4.437333-3.541333-8.533333-0.256-12.842667 0.085334l-0.341333-0.256 0.170667-0.426667z" fill="#AC1F16" p-id="5384"></path><path d="M393.472 543.445333c-1.450667 3.114667-2.858667 6.058667-6.314667 7.125334-2.944 0.938667-4.778667 2.56-4.864 5.973333 0 1.706667-1.152 3.669333-3.285333 2.858667-1.664-0.682667-1.493333-2.773333-0.554667-4.138667 1.92-2.773333 1.408-5.418667 0.469334-8.362667-0.896-2.858667 1.450667-5.034667 3.882666-3.541333 3.712 2.261333 6.869333 1.493333 10.666667 0.085333z" fill="#AD2016" p-id="5385"></path><path d="M360.32 568.448a21.333333 21.333333 0 0 0 11.946667-0.170667l-0.128-0.085333c-0.938667 1.877333-2.261333 3.626667-4.096 4.266667-3.712 1.536-6.314667 3.456-6.741334 7.850666-0.170667 1.322667-1.834667 3.157333-3.84 2.432-1.92-0.682667-1.450667-2.602667-1.024-4.053333 0.512-1.749333 1.365333-3.498667-0.085333-5.290667l3.968-4.949333z" fill="#AC1F16" p-id="5386"></path><path d="M397.568 571.477333c-2.346667 3.114667-2.346667 6.656-1.152 10.325334 0.256 0.768-0.682667 1.365333-1.536 1.450666-1.834667 0.085333-3.413333-1.024-3.413333-2.432-0.085333-5.12-3.029333-7.424-7.338667-8.832-1.066667-0.426667-2.56-1.450667-2.005333-2.688 0.682667-1.706667 2.133333-0.256 3.2-0.085333 2.517333 0.426667 4.864-0.256 7.381333-0.768 2.133333-0.554667 4.437333-0.341333 4.864 3.029333z" fill="#AD2116" p-id="5387"></path><path d="M380.458667 563.84c0 0.256 0.085333 0.512 0.256 0.682667-0.597333 6.016-2.56 6.869333-8.490667 3.669333l0.085333 0.085333v-3.754666l-0.085333 0.085333c2.56-2.56 5.12-3.84 8.234667-0.768z" fill="#368F52" p-id="5388"></path><path d="M301.696 493.312c1.024 1.877333 2.176 3.541333 2.261333 5.888 0.085333 3.114667-0.896 4.608-4.096 4.522667-4.864-0.981333-2.432-4.778667-2.688-7.466667-0.256-3.2 2.261333-3.114667 4.522667-2.944z" fill="#173A9F" p-id="5389"></path><path d="M317.738667 503.637333l-3.541334-0.298666c-0.042667-1.877333-0.213333-3.712-0.298666-5.546667-0.085333-2.048 0.426667-3.797333 2.901333-3.84 2.218667-0.213333 3.968 1.152 4.053333 2.986667 0.085333 2.517333 0.597333 5.802667-3.114666 6.698666z" fill="#0B34AB" p-id="5390"></path><path d="M318.592 486.4c-1.92 0-2.56-1.450667-2.56-2.816 0-1.408-0.042667-3.413333 1.706667-3.754667 2.005333-0.341333 2.944 1.322667 3.285333 3.157334 0.341333 1.962667-0.938667 2.773333-2.432 3.413333z" fill="#9F8D00" p-id="5391"></path><path d="M298.069333 479.402667c2.176 0.512 3.413333 1.408 3.712 2.944 0.213333 1.322667 0.554667 2.901333-2.048 3.157333-2.176 0.256-2.645333-1.066667-2.645333-2.346667s-0.426667-2.688 0.981333-3.754666z" fill="#A08F00" p-id="5392"></path><path d="M308.778667 481.834667c1.493333 0 2.645333 0.469333 2.645333 1.749333 0 1.365333-0.554667 3.114667-2.56 3.114667-1.578667 0-2.048-1.536-2.261333-2.816-0.256-1.28 0.682667-1.962667 2.176-2.048z" fill="#AC9900" p-id="5393"></path><path d="M349.994667 519.424c0.64 0.597333 1.493333 1.024 1.749333 1.621333 1.024 2.005333 3.285333 4.864 2.602667 6.016-1.109333 1.877333-2.56 3.456-2.944 5.717334-0.085333 0.341333-1.408 0.853333-2.005334 0.682666-3.712-0.768-3.541333-4.693333-4.053333-6.954666-0.469333-2.218667 2.218667-5.077333 4.650667-7.082667z" fill="#918D1A" p-id="5394"></path><path d="M343.168 531.626667c1.962667 1.28 2.261333 3.925333 3.370667 5.76 1.578667 2.773333-1.706667 5.376-2.986667 7.978666-0.64 1.194667-3.157333 0.341333-3.498667-0.981333-0.554667-2.602667-4.096-5.461333-0.128-8.149333 1.152-0.768 1.152-1.706667 1.322667-2.773334 0.085333-0.853333 0.341333-1.749333 1.92-1.834666z" fill="#888313" p-id="5395"></path><path d="M340.138667 516.992c0 5.376-0.085333 12.842667-4.181334 12.501333-2.005333-0.170667-1.749333-2.517333-2.56-3.157333-5.077333-4.266667 4.138667-13.269333 6.741334-9.344z" fill="#647134" p-id="5396"></path><path d="M349.866667 604.373333c-1.408 1.792-7.68 1.621333-11.904 1.109334-2.346667-0.341333-2.986667-5.461333-0.64-6.229334 5.589333-1.834667 5.589333-1.834667 11.946666-1.066666 0.853333 2.56 2.048 3.669333 0.64 6.186666z" fill="#D5B37B" p-id="5397"></path><path d="M341.418667 605.056a11.605333 11.605333 0 0 1 0.682666-7.637333c1.664-0.426667 1.92 1.109333 2.773334 1.749333 1.92 2.389333 0.853333 4.906667 0.256 7.338667l-3.114667 0.170666-0.597333-1.621333z" fill="#822C23" p-id="5398"></path><path d="M383.488 489.386667c1.578667-1.194667 1.706667-3.285333 2.773333-4.778667 3.242667-1.024 3.242667-3.370667 2.517334-5.973333-0.512-1.706667-1.024-3.370667-0.170667-5.034667 0.725333-1.493333 2.090667-2.517333 3.754667-2.005333 1.962667 0.597333 1.28 2.090667 0.938666 3.498666a37.12 37.12 0 0 0 0.256 13.952c1.493333 8.106667 0.426667 9.130667-7.296 7.808-1.109333-2.432-2.346667-4.693333-2.773333-7.466666z" fill="#D6D3D4" p-id="5399"></path><path d="M375.594667 423.082667l-1.450667-0.085334c-2.432 0.085333-4.522667-0.256-4.096-3.456 0.256-2.005333 2.005333-2.688 3.413333-1.92 1.877333 0.981333 5.12 1.834667 2.986667 5.376-0.256 0-0.597333 0-0.853333 0.085334z" fill="#AF8D03" p-id="5400"></path><path d="M339.413333 420.821333l0.085334-2.474666c1.408 0 2.944-2.261333 4.352-0.128 0.64 0.938667 0.554667 2.005333-0.213334 2.986666-1.493333 1.877333-2.901333 0.597333-4.266666-0.384z" fill="#A91617" p-id="5401"></path></svg>